M48
INCH,TZ
T1C0.0157
T2C0.0315
T3C0.0394
T4C0.0598
%
G90
G05
T1
X37450Y-39750
X38300Y-24250
X38500Y-39350
X38600Y-21250
X38900Y-42750
X38950Y-38100
X38950Y-47200
X40250Y-38250
X40400Y-20150
X40550Y-39300
X40600Y-40200
X40600Y-45700
X41000Y-38800
X41100Y-41250
X41100Y-45400
X41600Y-37650
X42000Y-20200
X46700Y-34850
X55500Y-27450
X59550Y-28450
X61100Y-21850
X63425Y-25025
X71250Y-39200
T2
X57200Y-52300
X58184Y-52300
X67500Y-52300
X68484Y-52300
X69250Y-43266
X69250Y-44250
X70750Y-35266
X70750Y-36250
X42700Y-22100
X42700Y-23084
X68750Y-23900
X68750Y-24884
X70750Y-32866
X70750Y-33850
X56550Y-31150
X56550Y-32150
X56550Y-33150
X56550Y-34150
X56550Y-35150
X56550Y-36150
X56550Y-37150
X59550Y-31150
X59550Y-32150
X59550Y-33150
X59550Y-34150
X59550Y-35150
X59550Y-36150
X59550Y-37150
X56550Y-21350
X56550Y-22350
X56550Y-23350
X56550Y-24350
X56550Y-25350
X56550Y-26350
X56550Y-27350
X59550Y-21350
X59550Y-22350
X59550Y-23350
X59550Y-24350
X59550Y-25350
X59550Y-26350
X59550Y-27350
X73100Y-33331
X73100Y-35300
X68081Y-37800
X70050Y-37800
X40050Y-23350
X40050Y-24334
X69100Y-39016
X69100Y-40000
X39500Y-35631
X39500Y-37600
X57031Y-39550
X59000Y-39550
X36650Y-39200
X36650Y-40200
X36650Y-41200
X36650Y-42200
X36650Y-43200
X36650Y-44200
X36650Y-45200
X36650Y-46200
X39650Y-39200
X39650Y-40200
X39650Y-41200
X39650Y-42200
X39650Y-43200
X39650Y-44200
X39650Y-45200
X39650Y-46200
X56550Y-41400
X56550Y-42400
X56550Y-43400
X56550Y-44400
X56550Y-45400
X56550Y-46400
X56550Y-47400
X59550Y-41400
X59550Y-42400
X59550Y-43400
X59550Y-44400
X59550Y-45400
X59550Y-46400
X59550Y-47400
X56931Y-29450
X58900Y-29450
X56981Y-19600
X58950Y-19600
X39331Y-18700
X41300Y-18700
X36050Y-35900
X36050Y-36884
X47250Y-52300
X48234Y-52300
T3
X73000Y-25800
X73000Y-26800
X52600Y-21900
X53600Y-21900
X54600Y-21900
X52000Y-52650
X53000Y-52650
X54000Y-52650
X62400Y-47500
X63400Y-47500
X64400Y-47500
X49500Y-41450
X50500Y-41450
X51500Y-41450
X35700Y-21850
X35700Y-22850
X35700Y-23850
X35700Y-24850
X35700Y-25850
X71000Y-47000
X72000Y-47000
X73000Y-47000
X65450Y-26800
X66450Y-26800
X67450Y-26800
X49550Y-36250
X50550Y-36250
X51550Y-36250
X49550Y-21400
X50550Y-21400
X51550Y-21400
X37200Y-32650
X37200Y-33650
X37200Y-34650
X37250Y-49600
X38250Y-49600
X39250Y-49600
X52600Y-31700
X53600Y-31700
X54600Y-31700
X49500Y-46500
X50500Y-46500
X51500Y-46500
X52550Y-36750
X53550Y-36750
X54550Y-36750
X65450Y-21900
X66450Y-21900
X67450Y-21900
X44750Y-37150
X44750Y-38150
X44750Y-39150
X44750Y-40150
X44750Y-41150
X44750Y-42150
X44750Y-43150
X44750Y-44150
X44750Y-45150
X44750Y-46150
X44750Y-47150
X44750Y-48150
X45750Y-37150
X45750Y-38150
X45750Y-39150
X45750Y-40150
X45750Y-41150
X45750Y-42150
X45750Y-43150
X45750Y-44150
X45750Y-45150
X45750Y-46150
X45750Y-47150
X45750Y-48150
X46750Y-37150
X46750Y-38150
X46750Y-39150
X46750Y-40150
X46750Y-41150
X46750Y-42150
X46750Y-43150
X46750Y-44150
X46750Y-45150
X46750Y-46150
X46750Y-47150
X46750Y-48150
X52550Y-41950
X53550Y-41950
X54550Y-41950
X64250Y-51150
X65250Y-51150
X66250Y-51150
X52550Y-47000
X53550Y-47000
X54550Y-47000
X62400Y-42450
X63400Y-42450
X64400Y-42450
X62450Y-32200
X63450Y-32200
X64450Y-32200
X39150Y-26250
X40150Y-26250
X41150Y-26250
X52600Y-26800
X53600Y-26800
X54600Y-26800
X37250Y-48250
X38250Y-48250
X39250Y-48250
X49500Y-42450
X50500Y-42450
X51500Y-42450
X62400Y-26300
X63400Y-26300
X64400Y-26300
X65450Y-41950
X66450Y-41950
X67450Y-41950
X49550Y-26300
X50550Y-26300
X51550Y-26300
X62400Y-22400
X63400Y-22400
X64400Y-22400
X62450Y-36250
X63450Y-36250
X64450Y-36250
X49500Y-47500
X50500Y-47500
X51500Y-47500
X37200Y-28650
X37200Y-29650
X37200Y-30650
X62400Y-21400
X63400Y-21400
X64400Y-21400
X40000Y-51150
X41000Y-51150
X42000Y-51150
X71000Y-48000
X72000Y-48000
X73000Y-48000
X50000Y-51150
X51000Y-51150
X52000Y-51150
X62450Y-37250
X63450Y-37250
X64450Y-37250
X35700Y-30650
X35700Y-31650
X35700Y-32650
X62400Y-41450
X63400Y-41450
X64400Y-41450
X38650Y-28450
X38650Y-29450
X38650Y-30450
X38650Y-31450
X38650Y-32450
X38650Y-33450
X39650Y-28450
X39650Y-29450
X39650Y-30450
X39650Y-31450
X39650Y-32450
X39650Y-33450
X40650Y-28450
X40650Y-29450
X40650Y-30450
X40650Y-31450
X40650Y-32450
X40650Y-33450
X41650Y-28450
X41650Y-29450
X41650Y-30450
X41650Y-31450
X41650Y-32450
X41650Y-33450
X42650Y-28450
X42650Y-29450
X42650Y-30450
X42650Y-31450
X42650Y-32450
X42650Y-33450
X43650Y-28450
X43650Y-29450
X43650Y-30450
X43650Y-31450
X43650Y-32450
X43650Y-33450
X44650Y-28450
X44650Y-29450
X44650Y-30450
X44650Y-31450
X44650Y-32450
X44650Y-33450
X45650Y-28450
X45650Y-29450
X45650Y-30450
X45650Y-31450
X45650Y-32450
X45650Y-33450
X46650Y-28450
X46650Y-29450
X46650Y-30450
X46650Y-31450
X46650Y-32450
X46650Y-33450
X43600Y-26250
X44600Y-26250
X45600Y-26250
X62400Y-46500
X63400Y-46500
X64400Y-46500
X73000Y-42550
X73000Y-43550
X73000Y-44550
X49550Y-22400
X50550Y-22400
X51550Y-22400
X62450Y-31200
X63450Y-31200
X64450Y-31200
X67550Y-18850
X67550Y-20110
X68550Y-18850
X68550Y-20110
X69550Y-18850
X69550Y-20110
X42000Y-52650
X43000Y-52650
X44000Y-52650
X65450Y-31700
X66450Y-31700
X67450Y-31700
X60250Y-51150
X61250Y-51150
X62250Y-51150
X62400Y-27300
X63400Y-27300
X64400Y-27300
X49550Y-31200
X50550Y-31200
X51550Y-31200
X65450Y-36750
X66450Y-36750
X67450Y-36750
X62250Y-52650
X63250Y-52650
X64250Y-52650
X44000Y-51150
X45000Y-51150
X46000Y-51150
X49550Y-27300
X50550Y-27300
X51550Y-27300
X49550Y-37250
X50550Y-37250
X51550Y-37250
X65450Y-47000
X66450Y-47000
X67450Y-47000
X54000Y-51150
X55000Y-51150
X56000Y-51150
X49550Y-32200
X50550Y-32200
X51550Y-32200
T4
X72200Y-21750
X72200Y-23750
X72200Y-28850
X72200Y-30850
T0
M30
